<svg width="24" height="24" viewBox="0 0 24 24" fill="none" xmlns="http://www.w3.org/2000/svg">
<path d="M21.775 12.2249C21.775 11.5666 21.7166 10.9416 21.6166 10.3333H12.2V14.0916H17.5916C17.35 15.3249 16.6416 16.3666 15.5916 17.0749V19.5749H18.8083C20.6916 17.8333 21.775 15.2666 21.775 12.2249Z" fill="#4285F4"/>
<path d="M12.2001 22C14.9001 22 17.1585 21.1 18.8085 19.575L15.5918 17.075C14.6918 17.675 13.5501 18.0417 12.2001 18.0417C9.59181 18.0417 7.38348 16.2833 6.59181 13.9083H3.27515V16.4833C4.91681 19.75 8.29181 22 12.2001 22Z" fill="#34A853"/>
<path d="M6.59162 13.9084C6.38328 13.3084 6.27495 12.6667 6.27495 12.0001C6.27495 11.3334 6.39162 10.6917 6.59162 10.0917V7.51672H3.27495C2.59162 8.86672 2.19995 10.3834 2.19995 12.0001C2.19995 13.6167 2.59162 15.1334 3.27495 16.4834L6.59162 13.9084Z" fill="#FBBC05"/>
<path d="M12.2001 5.95833C13.6751 5.95833 14.9918 6.46667 16.0335 7.45834L18.8835 4.60833C17.1585 2.99167 14.9001 2 12.2001 2C8.29181 2 4.91681 4.25 3.27515 7.51667L6.59181 10.0917C7.38348 7.71667 9.59181 5.95833 12.2001 5.95833Z" fill="#EA4335"/>
</svg>
